<svg width="32" height="32" viewBox="0 0 32 32" fill="none">
  <g>
    <path d="M25.6 23.2L16.8 32c-1.1 1.1-2.9 1.1-4 0l-8.8-8.8c-1.1-1.1-1.1-2.9 0-4l2.1-2.1 2.1 2.1-2.1 2.1c-.4.4-.4 1 0 1.4l8.8 8.8c.4.4 1 .4 1.4 0l8.8-8.8c.4-.4.4-1 0-1.4l-2.1-2.1 2.1-2.1 2.1 2.1c1.1 1.1 1.1 2.9 0 4z" fill="#FFA116"/>
    <path d="M25.6 8.8l-8.8-8.8c-1.1-1.1-2.9-1.1-4 0l-8.8 8.8c-1.1 1.1-1.1 2.9 0 4l2.1 2.1 2.1-2.1-2.1-2.1c-.4-.4-.4-1 0-1.4l8.8-8.8c.4-.4 1-.4 1.4 0l8.8 8.8c.4.4.4 1 0 1.4l-2.1 2.1 2.1 2.1 2.1-2.1c1.1-1.1 1.1-2.9 0-4z" fill="#070707"/>
    <path d="M21.2 10.8l-1.4-1.4-7.6 7.6 7.6 7.6 1.4-1.4-6.2-6.2z" fill="#070707"/>
  </g>
</svg> 